<?xml version="1.0" encoding="UTF-8" standalone="no"?><!DOCTYPE svg PUBLIC "-//W3C//DTD SVG 1.1//EN" "http://www.w3.org/Graphics/SVG/1.1/DTD/svg11.dtd"><svg width="100%" height="100%" viewBox="0 0 834 834" version="1.1" xmlns="http://www.w3.org/2000/svg" xmlnsxlink="http://www.w3.org/1999/xlink" xmlspace="preserve" xmlnsserif="http://www.serif.com/" style="fill-rule:evenodd;clip-rule:evenodd;stroke-linejoin:round;stroke-miterlimit:2;"><path d="M360.428,185.282c-40.177,-42.515 -40.02,-111.114 0.474,-153.425c40.653,-42.476 106.662,-42.476 147.314,0l294.628,307.848c12.285,12.836 20.858,28.092 25.715,44.298c3.043,10.111 4.711,20.859 4.772,32.001l0.002,0.641l0,0.011c0,0.462 -0.002,0.925 -0.008,1.389l-0.008,0.581l-0.013,0.653l-0.005,0.174l-0.003,0.117l-0.009,0.361l-0.005,0.149l-0.002,0.072l-0.005,0.143l-0.009,0.289l-0.006,0.159l-0.003,0.107l-0.007,0.164l-0.008,0.223l-0.007,0.161l-0.006,0.149l-0.008,0.179l-0.007,0.163l-0.007,0.152l-0.009,0.202l-0.01,0.19l-0.005,0.108l-0.007,0.131l-0.014,0.265l-0.012,0.198l-0.028,0.496l-0.016,0.241c-0.233,3.72 -0.646,7.389 -1.23,10.999l-0.058,0.36l-0.039,0.23l-0.011,0.066l-0.018,0.109l-0.045,0.265l-0.026,0.15l-0.02,0.121l-0.043,0.243l-0.027,0.155l-0.013,0.072c-0.636,3.578 -1.443,7.13 -2.425,10.643c-0.623,2.232 -1.316,4.447 -2.078,6.64c-0.144,0.415 -0.291,0.829 -0.439,1.24l-0.225,0.618l-0.066,0.179c-0.381,1.029 -0.777,2.054 -1.188,3.075c-0.328,0.812 -0.666,1.622 -1.013,2.426l-0.19,0.437l-0.266,0.605c-0.089,0.201 -0.179,0.403 -0.27,0.603c-0.827,1.834 -1.706,3.649 -2.636,5.442c-0.339,0.653 -0.684,1.303 -1.037,1.95c-1.699,3.118 -3.557,6.167 -5.575,9.134l-0.196,0.288l-0.198,0.287c-0.487,0.707 -0.983,1.408 -1.488,2.105l-0.258,0.356c-2.658,3.633 -5.56,7.127 -8.709,10.46l-0.475,0.499l-294.628,307.847c-40.652,42.476 -106.661,42.476 -147.314,0c-40.652,-42.476 -40.652,-111.447 0,-153.924l116.825,-122.066l-162.302,-0c-0.973,0.028 -1.948,0.043 -2.925,0.043l-208.333,-0c-57.491,-0 -104.167,-48.77 -104.167,-108.841c-0,-60.071 46.676,-108.841 104.167,-108.841l205.408,0c0.973,-0.028 1.948,-0.042 2.925,-0.042l165.186,-0l-116.784,-122.024l-0.474,-0.499Z" style="fill:#ebebeb;"/></svg>