<?xml version="1.0" encoding="UTF-8" standalone="no"?><!DOCTYPE svg PUBLIC "-//W3C//DTD SVG 1.1//EN" "http://www.w3.org/Graphics/SVG/1.1/DTD/svg11.dtd"><svg width="100%" height="100%" viewBox="0 0 1000 1000" version="1.1" xmlns="http://www.w3.org/2000/svg" xmlns:xlink="http://www.w3.org/1999/xlink" xml:space="preserve" xmlns:serif="http://www.serif.com/" style="fill-rule:evenodd;clip-rule:evenodd;stroke-linejoin:round;stroke-miterlimit:2;"><path d="M500,0c275.958,0 500,224.042 500,500c0,275.958 -224.042,500 -500,500c-275.958,0 -500,-224.042 -500,-500c0,-275.958 224.042,-500 500,-500Zm24.301,518.009c65.075,46.346 156.077,40.342 214.427,-18.009c65.044,-65.044 65.044,-170.658 0,-235.702c-65.043,-65.044 -170.658,-65.044 -235.702,-0c-58.351,58.351 -64.355,149.352 -18.009,214.427l-237.335,237.335l39.284,39.284l237.335,-237.335Zm18.009,-57.293c-43.363,-43.362 -43.363,-113.772 -0,-157.135c43.362,-43.362 113.772,-43.362 157.135,0c43.362,43.363 43.362,113.773 -0,157.135c-43.363,43.363 -113.773,43.363 -157.135,0Z" style="fill:#3f9888;"/></svg>