<?xml version="1.0" encoding="UTF-8" standalone="no"?><!DOCTYPE svg PUBLIC "-//W3C//DTD SVG 1.1//EN" "http://www.w3.org/Graphics/SVG/1.1/DTD/svg11.dtd"><svg width="100%" height="100%" viewBox="0 0 1000 1000" version="1.1" xmlns="http://www.w3.org/2000/svg" xmlns:xlink="http://www.w3.org/1999/xlink" xml:space="preserve" xmlns:serif="http://www.serif.com/" style="fill-rule:evenodd;clip-rule:evenodd;stroke-linejoin:round;stroke-miterlimit:2;"><g><path d="M500,0c275.958,0 500,186.702 500,416.667c0,229.964 -224.042,416.666 -500,416.666c-275.958,0 -500,-186.702 -500,-416.666c0,-229.965 224.042,-416.667 500,-416.667Zm-250,354.167c34.495,-0 62.5,28.005 62.5,62.5c0,34.494 -28.005,62.5 -62.5,62.5c-34.495,-0 -62.5,-28.006 -62.5,-62.5c0,-34.495 28.005,-62.5 62.5,-62.5Zm250,-0c34.495,-0 62.5,28.005 62.5,62.5c0,34.494 -28.005,62.5 -62.5,62.5c-34.495,-0 -62.5,-28.006 -62.5,-62.5c0,-34.495 28.005,-62.5 62.5,-62.5Zm250,-0c34.495,-0 62.5,28.005 62.5,62.5c0,34.494 -28.005,62.5 -62.5,62.5c-34.495,-0 -62.5,-28.006 -62.5,-62.5c0,-34.495 28.005,-62.5 62.5,-62.5Z" style="fill:#3f9888;"/><path d="M500,833.333l-500,166.667l250,-520.833l250,354.166Z" style="fill:#3f9888;"/></g></svg>