<?xml version="1.0" encoding="UTF-8" standalone="no"?><!DOCTYPE svg PUBLIC "-//W3C//DTD SVG 1.1//EN" "http://www.w3.org/Graphics/SVG/1.1/DTD/svg11.dtd"><svg width="100%" height="100%" viewBox="0 0 1238 1238" version="1.1" xmlns="http://www.w3.org/2000/svg" xmlns:xlink="http://www.w3.org/1999/xlink" xml:space="preserve" xmlns:serif="http://www.serif.com/" style="fill-rule:evenodd;clip-rule:evenodd;stroke-linejoin:round;stroke-miterlimit:2;"><path d="M618.75,805.761c-169.606,0 -478.683,-291.954 -583.157,-395.696c-5.949,-5.976 -14.915,-7.774 -22.71,-4.556c-7.794,3.219 -12.878,10.819 -12.878,19.252c-0.005,137.976 -0.005,522.126 -0.005,708.572c0,27.627 10.975,54.122 30.51,73.657c19.535,19.535 46.03,30.51 73.657,30.51c233.35,0 795.816,0 1029.17,0c27.627,0 54.122,-10.975 73.657,-30.51c19.535,-19.535 30.51,-46.03 30.51,-73.657c0,-186.446 0,-570.596 0,-708.572c-0,-8.435 -5.086,-16.037 -12.882,-19.256c-7.796,-3.219 -16.763,-1.42 -22.715,4.557c-104.47,103.745 -413.547,395.699 -583.153,395.699Z"/><path d="M99.743,0c-19.491,-0 -37.35,10.882 -46.287,28.204c-8.936,17.322 -7.453,38.183 3.844,54.066c120.565,168.351 402.362,536.48 561.45,536.48c159.088,0 440.885,-368.129 561.441,-536.486c11.295,-15.88 12.777,-36.737 3.843,-54.055c-8.934,-17.318 -26.79,-28.198 -46.277,-28.198c-232.049,-0.011 -805.965,-0.011 -1038.01,-0.011Z"/></svg>