<?xml version="1.0" encoding="UTF-8" standalone="no"?><!DOCTYPE svg PUBLIC "-//W3C//DTD SVG 1.1//EN" "http://www.w3.org/Graphics/SVG/1.1/DTD/svg11.dtd"><svg width="100%" height="100%" viewBox="0 0 418 418" version="1.1" xmlns="http://www.w3.org/2000/svg" xmlns:xlink="http://www.w3.org/1999/xlink" xml:space="preserve" xmlns:serif="http://www.serif.com/" style="fill-rule:evenodd;clip-rule:evenodd;stroke-linejoin:round;stroke-miterlimit:2;"><path d="M103.521,355.135l313.354,-313.354l-41.573,-41.573l-375.094,375.094l41.573,41.573l60.126,-60.126l-10.393,-10.393l1.614,-1.614l10.393,10.393Zm282.174,-302.961c-5.736,5.737 -15.05,5.737 -20.786,0c-5.736,-5.736 -5.736,-15.05 -0,-20.786c5.736,-5.736 15.05,-5.736 20.786,0c5.737,5.736 5.737,15.05 0,20.786Zm-221.117,241.904l1.614,-1.614l-10.393,-10.393l-1.614,1.614l10.393,10.393Zm-31.335,31.336l1.614,-1.615l-10.393,-10.393l-1.615,1.614l10.394,10.394Zm94.006,-94.006l1.614,-1.615l-10.393,-10.393l-1.615,1.614l10.394,10.394Zm62.67,-62.671l1.615,-1.614l-10.394,-10.394l-1.614,1.615l10.393,10.393Zm62.671,-62.671l1.614,-1.614l-10.393,-10.393l-1.614,1.614l10.393,10.393Zm-94.006,94.006l1.614,-1.614l-10.393,-10.393l-1.614,1.614l10.393,10.393Zm-62.671,62.671l1.614,-1.614l-10.393,-10.393l-1.614,1.614l10.393,10.393Zm125.342,-125.342l1.614,-1.614l-10.393,-10.393l-1.614,1.614l10.393,10.393Zm62.67,-62.67l1.615,-1.614l-10.394,-10.394l-1.614,1.615l10.393,10.393Zm-313.353,313.353l1.614,-1.614l-10.393,-10.393l-1.614,1.614l10.393,10.393Z" style="fill:#3f9888;"/><g><path d="M41.781,83.354c0,0 239.818,239.818 312.738,312.738c11.478,11.478 30.088,11.478 41.566,0c0.002,-0.002 0.005,-0.005 0.007,-0.007c11.478,-11.478 11.478,-30.088 -0,-41.566c-72.92,-72.92 -312.738,-312.738 -312.738,-312.738l-41.573,41.573Z" style="fill:#3f9888;"/><path d="M20.995,20.995l62.359,20.786l-41.573,41.573l-20.786,-62.359Z" style="fill:#3f9888;"/></g></svg>