<?xml version="1.0" encoding="UTF-8" standalone="no"?><!DOCTYPE svg PUBLIC "-//W3C//DTD SVG 1.1//EN" "http://www.w3.org/Graphics/SVG/1.1/DTD/svg11.dtd"><svg width="100%" height="100%" viewBox="0 0 2134 2134" version="1.1" xmlns="http://www.w3.org/2000/svg" xmlnsxlink="http://www.w3.org/1999/xlink" xmlspace="preserve" xmlnsserif="http://www.serif.com/" style="fill-rule:evenodd;clip-rule:evenodd;stroke-linejoin:round;stroke-miterlimit:2;"><g id="Calque-1" serifid="Calque 1"><g id="g3013"><path id="polygon2989" d="M2133.33,-0l-194.352,1919.78l-873.62,213.556l-871.215,-213.255l-194.146,-1920.08l2133.33,-0Z" style="fill:#264de4;fill-rule:nonzero;"/><path id="polygon2991" d="M1772.59,1797.53l166.087,-1640.54l-872.014,-0l-0,1813.11l705.927,-172.568Z" style="fill:#2965f1;fill-rule:nonzero;"/><path id="polygon2993" d="M445.076,869.124l23.937,235.487l597.654,0l-0,-235.487l-621.591,0Z" style="fill:#ebebeb;fill-rule:nonzero;"/><path id="polygon2995" d="M1066.67,392.487l-669.688,0l24.278,235.492l645.41,0l-0,-235.492Z" style="fill:#ebebeb;fill-rule:nonzero;"/><path id="polygon2997" d="M1066.67,1725.72l-0,-245.008l-1.171,0.275l-297.439,-70.817l-19.014,-187.814l-268.097,-0l37.417,369.752l547.074,133.913l1.23,-0.301Z" style="fill:#ebebeb;fill-rule:nonzero;"/><path id="polygon3005" d="M1394.61,1104.61l-31.001,305.412l-297.868,70.89l0,244.998l547.51,-133.799l4.017,-39.785l62.759,-619.967l6.517,-63.236l48.214,-476.637l-669.017,0l0,235.492l376.33,0l-24.301,241.145l-352.029,0l0,235.487l328.869,0Z" style="fill:#fff;fill-rule:nonzero;"/></g></g></svg>