<?xml version="1.0" encoding="UTF-8" standalone="no"?><!DOCTYPE svg PUBLIC "-//W3C//DTD SVG 1.1//EN" "http://www.w3.org/Graphics/SVG/1.1/DTD/svg11.dtd"><svg width="100%" height="100%" viewBox="0 0 2134 2134" version="1.1" xmlns="http://www.w3.org/2000/svg" xmlnsxlink="http://www.w3.org/1999/xlink" xmlspace="preserve" xmlnsserif="http://www.serif.com/" style="fill-rule:evenodd;clip-rule:evenodd;stroke-linejoin:round;stroke-miterlimit:2;"><g><path d="M194.046,1920.73l-194.046,-1920.73l2133.33,0l-194.046,1919.69l-874.384,213.644" style="fill:#e44d26;fill-rule:nonzero;"/><path d="M1066.67,1969.99l-0,-1812.35l872.032,-0l-166.409,1638.63" style="fill:#f16529;fill-rule:nonzero;"/><path d="M396.325,392.546l670.342,-0l-0,235.424l-377.509,-0l24.697,241.127l352.812,0l-0,234.906l-597.428,-0m11.761,118.23l268.136,0l18.817,188.235l298.714,70.524l-0,245.795l-548.034,-134.825" style="fill:#ebebeb;fill-rule:nonzero;"/><path d="M1734.66,392.546l-669.165,-0l-0,235.424l644.469,-0m-24.109,241.127l-620.36,0l-0,235.424l329.29,0l-31.165,305.947l-298.125,70.524l-0,244.757l546.857,-133.787" style="fill:#fff;fill-rule:nonzero;"/></g></svg>