<?xml version="1.0" encoding="UTF-8" standalone="no"?><!DOCTYPE svg PUBLIC "-//W3C//DTD SVG 1.1//EN" "http://www.w3.org/Graphics/SVG/1.1/DTD/svg11.dtd"><svg width="100%" height="100%" viewBox="0 0 2134 2134" version="1.1" xmlns="http://www.w3.org/2000/svg" xmlnsxlink="http://www.w3.org/1999/xlink" xmlspace="preserve" xmlnsserif="http://www.serif.com/" style="fill-rule:evenodd;clip-rule:evenodd;stroke-linejoin:round;stroke-miterlimit:2;"><g><path d="M2133.33,1066.91c0,-158.694 -176.98,-309.087 -448.321,-402.35c62.617,-310.552 34.787,-557.626 -87.838,-636.729c-28.265,-18.555 -61.313,-27.344 -97.405,-27.344l-0,108.889c20.003,-0 36.092,4.394 49.572,12.695c59.138,38.087 84.794,183.108 64.791,369.635c-4.783,45.899 -12.61,94.239 -22.177,143.557c-85.229,-23.438 -178.285,-41.505 -276.124,-53.224c-58.704,-90.333 -119.582,-172.366 -180.894,-244.144c141.758,-147.952 274.82,-229.008 365.267,-229.008l-0,-108.888c-119.582,-0 -276.125,95.705 -434.407,261.723c-158.282,-165.042 -314.825,-259.77 -434.407,-259.77l0,108.889c90.012,-0 223.509,80.567 365.267,227.542c-60.878,71.779 -121.756,153.323 -179.589,243.656c-98.275,11.719 -191.331,29.786 -276.56,53.712c-10.001,-48.829 -17.393,-96.193 -22.612,-141.604c-20.437,-186.526 4.784,-331.548 63.487,-370.123c13.046,-8.789 30.004,-12.695 50.007,-12.695l0,-108.889c-36.527,0 -69.575,8.79 -98.274,27.345c-122.191,79.102 -149.586,325.688 -86.534,635.263c-270.471,93.752 -446.582,243.656 -446.582,401.862c-0,158.694 176.981,309.087 448.322,402.35c-62.617,310.551 -34.788,557.625 87.838,636.728c28.265,18.555 61.312,27.344 97.839,27.344c119.582,0 276.125,-95.704 434.407,-261.722c158.282,165.041 314.825,259.769 434.407,259.769c36.527,0 69.575,-8.789 98.274,-27.344c122.191,-79.103 149.586,-325.689 86.534,-635.264c269.601,-93.263 445.712,-243.656 445.712,-401.861Zm-566.164,-325.689c-16.089,62.989 -36.091,127.932 -58.703,192.874c-17.829,-39.063 -36.527,-78.126 -56.964,-117.189c-20.003,-39.063 -41.31,-77.15 -62.618,-114.26c61.748,10.255 121.321,22.95 178.285,38.575Zm-199.157,520.028c-33.918,65.919 -68.705,128.42 -104.797,186.526c-64.791,6.348 -130.452,9.766 -196.548,9.766c-65.661,-0 -131.323,-3.418 -195.679,-9.278c-36.092,-58.106 -71.314,-120.119 -105.232,-185.549c-33.048,-63.966 -63.052,-128.909 -90.447,-194.339c26.96,-65.431 57.399,-130.862 90.012,-194.828c33.918,-65.918 68.705,-128.419 104.797,-186.526c64.792,-6.348 130.453,-9.766 196.549,-9.766c65.661,0 131.322,3.418 195.678,9.278c36.092,58.106 71.314,120.119 105.232,185.55c33.048,63.965 63.052,128.908 90.447,194.339c-27.395,65.43 -57.399,130.861 -90.012,194.827Zm140.454,-63.478c23.481,65.431 43.484,130.862 60.008,194.339c-56.964,15.625 -116.972,28.809 -179.155,39.063c21.307,-37.598 42.615,-76.173 62.617,-115.724c20.003,-39.063 38.701,-78.615 56.53,-117.678Zm-440.93,521.004c-40.44,-46.875 -80.88,-99.122 -120.886,-156.252c39.136,1.953 79.142,3.418 119.582,3.418c40.875,-0 81.315,-0.977 120.886,-3.418c-39.136,57.13 -79.576,109.377 -119.582,156.252Zm-323.522,-287.602c-61.747,-10.254 -121.321,-22.949 -178.285,-38.575c16.089,-62.989 36.092,-127.931 58.704,-192.874c17.828,39.063 36.526,78.127 56.964,117.19c20.437,39.063 41.31,77.149 62.617,114.259Zm321.348,-1016.13c40.44,46.876 80.881,99.123 120.886,156.253c-39.136,-1.953 -79.141,-3.418 -119.581,-3.418c-40.875,-0 -81.316,0.976 -120.886,3.418c39.135,-57.13 79.576,-109.377 119.581,-156.253Zm-321.783,287.602c-21.307,37.599 -42.614,76.173 -62.617,115.725c-20.003,39.063 -38.701,78.126 -56.529,117.189c-23.482,-65.431 -43.485,-130.861 -60.008,-194.339c56.964,-15.137 116.972,-28.32 179.154,-38.575Zm-393.531,611.338c-153.934,-73.732 -253.513,-170.413 -253.513,-247.074c-0,-76.662 99.579,-173.831 253.513,-247.074c37.396,-18.067 78.271,-34.18 120.451,-49.317c24.786,95.704 57.399,195.315 97.839,297.367c-40.005,101.564 -72.184,200.687 -96.535,295.903c-43.049,-15.137 -83.924,-31.738 -121.755,-49.805Zm233.944,697.764c-59.138,-38.086 -84.794,-183.108 -64.791,-369.634c4.783,-45.899 12.61,-94.24 22.177,-143.557c85.229,23.438 178.285,41.505 276.124,53.223c58.704,90.334 119.582,172.366 180.895,244.145c-141.759,147.951 -274.82,229.007 -365.267,229.007c-19.568,-0.488 -36.092,-4.883 -49.138,-13.184Zm1031.44,-372.076c20.437,186.527 -4.783,331.548 -63.487,370.123c-13.045,8.789 -30.004,12.696 -50.007,12.696c-90.012,-0 -223.508,-80.568 -365.267,-227.543c60.878,-71.778 121.756,-153.322 179.59,-243.656c98.274,-11.719 191.33,-29.785 276.559,-53.712c10.001,49.318 17.829,96.682 22.612,142.092Zm167.414,-325.688c-37.396,18.067 -78.272,34.18 -120.451,49.317c-24.786,-95.705 -57.399,-195.315 -97.84,-297.368c40.006,-101.564 72.184,-200.686 96.535,-295.903c43.05,15.137 83.925,31.739 122.191,49.806c153.934,73.731 253.512,170.412 253.512,247.074c-0.434,76.661 -100.013,173.831 -253.947,247.074Z" style="fill:#61dafb;fill-rule:nonzero;"/><circle cx="1066.46" cy="1061.88" r="190.417" style="fill:#61dafb;"/></g></svg>