<?xml version="1.0" encoding="UTF-8" standalone="no"?><!DOCTYPE svg PUBLIC "-//W3C//DTD SVG 1.1//EN" "http://www.w3.org/Graphics/SVG/1.1/DTD/svg11.dtd"><svg width="100%" height="100%" viewBox="0 0 512 512" version="1.1" xmlns="http://www.w3.org/2000/svg" xmlnsxlink="http://www.w3.org/1999/xlink" xmlspace="preserve" xmlnsserif="http://www.serif.com/" style="fill-rule:evenodd;clip-rule:evenodd;stroke-linejoin:round;stroke-miterlimit:2;"><path d="M256,352.165c82.92,0 156.516,13.257 202.097,33.979c14.145,6.431 25.467,13.502 33.182,21.22c6.133,6.136 9.889,12.483 9.889,19.303c0,6.819 -3.756,13.166 -9.889,19.302c-7.715,7.718 -19.037,14.79 -33.182,21.22c-45.581,20.722 -119.177,33.979 -202.097,33.979c-82.92,0 -156.516,-13.257 -202.097,-33.979c-14.145,-6.43 -25.467,-13.502 -33.182,-21.22c-6.133,-6.136 -9.889,-12.483 -9.889,-19.302c-0,-6.82 3.756,-13.167 9.889,-19.303c7.715,-7.718 19.037,-14.789 33.182,-21.22c45.581,-20.722 119.177,-33.979 202.097,-33.979Z" style="fill:#f1aa00;"/><path d="M256,10.832l1.942,0.002c82.125,0.205 154.929,13.417 200.155,33.977c14.145,6.43 25.467,13.502 33.182,21.22c6.133,6.136 9.889,12.483 9.889,19.302c0,6.82 -3.756,13.167 -9.889,19.303c-7.715,7.718 -19.037,14.789 -33.182,21.22c-45.226,20.56 -118.03,33.772 -200.155,33.977l-1.942,0.002c-82.92,-0 -156.516,-13.257 -202.097,-33.979c-14.145,-6.431 -25.467,-13.502 -33.182,-21.22c-6.133,-6.136 -9.889,-12.483 -9.889,-19.303c-0,-6.819 3.756,-13.166 9.889,-19.302c7.715,-7.718 19.037,-14.79 33.182,-21.22c45.581,-20.722 119.177,-33.979 202.097,-33.979Z" style="fill:#f1aa00;"/><path d="M501.168,124.879l0,120.289c0,0 -417.331,0 -490.336,0l-0,-120.289c3.543,3.017 7.512,5.946 11.904,8.768c43.743,28.114 131.769,47.851 233.264,47.851c101.495,0 189.521,-19.737 233.264,-47.851c4.392,-2.822 8.361,-5.751 11.904,-8.768Zm-487.177,-28.714l484.018,0c-1.673,2.883 -3.959,5.698 -6.73,8.471c-7.715,7.718 -19.037,14.789 -33.182,21.22c-45.581,20.722 -119.177,33.979 -202.097,33.979c-82.92,-0 -156.516,-13.257 -202.097,-33.979c-14.145,-6.431 -25.467,-13.502 -33.182,-21.22c-2.771,-2.773 -5.057,-5.588 -6.73,-8.471Z" style="fill:#f1aa00;"/><path d="M501.168,295.545l0,120.29c0,-0 -490.336,-0 -490.336,-0l-0,-120.29c3.541,3.016 7.512,5.946 11.904,8.769c43.743,28.113 131.769,47.851 233.264,47.851c101.495,0 189.521,-19.738 233.264,-47.851c4.392,-2.823 8.363,-5.753 11.904,-8.769Zm-487.177,-28.713l484.018,-0c-0.146,0.252 -0.297,0.503 -0.453,0.754l-0.071,0.116c-0.932,1.489 -2.025,2.959 -3.261,4.416c-0.907,1.069 -1.891,2.13 -2.945,3.184c-2.169,2.171 -4.624,4.29 -7.348,6.359l-0.456,0.345l-0.461,0.343c-6.802,5.029 -15.192,9.752 -24.917,14.174c-45.581,20.721 -119.177,33.979 -202.097,33.979c-82.92,-0 -156.516,-13.258 -202.097,-33.979c-14.145,-6.431 -25.467,-13.502 -33.182,-21.221c-2.771,-2.772 -5.057,-5.587 -6.73,-8.47Z" style="fill:#f1aa00;"/><path d="M10.832,256c-0,-6.82 3.756,-13.166 9.889,-19.302c7.715,-7.719 19.037,-14.79 33.182,-21.221c45.581,-20.721 119.177,-33.979 202.097,-33.979c82.92,0 156.516,13.258 202.097,33.979c14.145,6.431 25.467,13.502 33.182,21.221c5.65,5.652 9.282,11.482 9.82,17.697c0.046,0.532 0.069,1.067 0.069,1.605c0,4.008 -1.297,7.852 -3.612,11.586l-0.071,0.116c-0.932,1.489 -2.025,2.959 -3.261,4.416c-0.907,1.069 -1.891,2.13 -2.945,3.184c-2.169,2.171 -4.624,4.29 -7.348,6.359l-0.456,0.345l-0.461,0.343c-6.802,5.029 -15.192,9.752 -24.917,14.174c-45.581,20.721 -119.177,33.979 -202.097,33.979c-82.92,-0 -156.516,-13.258 -202.097,-33.979c-14.145,-6.431 -25.467,-13.502 -33.182,-21.221c-6.133,-6.136 -9.889,-12.482 -9.889,-19.302Z" style="fill:#f1aa00;"/></svg>